<?xml version="1.0" encoding="utf-8"?>
<!-- Generator: Adobe Illustrator 23.0.2, SVG Export Plug-In . SVG Version: 6.00 Build 0)  -->
<svg version="1.1" id="Layer_1" xmlns="http://www.w3.org/2000/svg" xmlns:xlink="http://www.w3.org/1999/xlink" x="0px" y="0px"
	 viewBox="0 0 446.8 446.8" style="enable-background:new 0 0 446.8 446.8;" xml:space="preserve">
<style type="text/css">
	.st0{fill:url(#SVGID_1_);}
	.st1{fill:#FFFFFF;}
</style>
<linearGradient id="SVGID_1_" gradientUnits="userSpaceOnUse" x1="0" y1="223.4118" x2="446.8235" y2="223.4118">
	<stop  offset="2.663895e-07" style="stop-color:#4370B7"/>
	<stop  offset="1" style="stop-color:#3DC6ED"/>
</linearGradient>
<rect class="st0" width="446.8" height="446.8"/>
<path class="st1" d="M351.4,240.5c-9.3-1.1-17.6,5.5-18.8,14.7c-7.5,59.3-57.9,103.7-117.7,103.6h-94.7l10.8-10.7
	c6.6-6.6,6.6-17.3,0-23.9c-46.4-46.2-46.5-121.2-0.3-167.6c15-15.1,33.9-25.9,54.5-31.2c9.1-2.3,14.5-11.6,12.2-20.7
	c-2.3-9.1-11.6-14.5-20.7-12.2c-81.4,21.2-130.3,104.5-109,185.9c5.4,20.8,15.2,40.2,28.6,56.9l-29,28.3c-4.8,4.9-6.2,12.2-3.6,18.5
	c2.6,6.3,8.7,10.5,15.6,10.5h135.5c76.8,0,141.7-57.2,151.2-133.4C367.2,250.1,360.6,241.7,351.4,240.5z M350.4,138.7
	c-7.2,0-14.2,2.3-20,6.6l-29.6-13.5l32.7-14.9c5.1,3.1,11,4.8,16.9,4.9c18.7,0,33.9-15.2,33.9-33.9s-15.2-33.9-33.9-33.9
	s-33.9,15.2-33.9,33.9l-32.2,14.7c-5.5-3.9-11.9-6.1-18.6-6.3c-18.7,0-33.9,15.2-33.9,33.9s15.2,33.9,33.9,33.9
	c5.5-0.1,10.9-1.5,15.7-4.1l35.4,16.9c2.4,18.5,19.4,31.6,38,29.2s31.6-19.4,29.2-38C381.8,151.3,367.4,138.7,350.4,138.7z"/>
</svg>
